<?xml version="1.0" encoding="iso-8859-1"?>
<!-- Generator: Adobe Illustrator 19.0.0, SVG Export Plug-In . SVG Version: 6.00 Build 0)  -->
<svg xmlns="http://www.w3.org/2000/svg" xmlns:xlink="http://www.w3.org/1999/xlink" version="1.1" id="Capa_1" x="0px" y="0px" viewBox="0 0 512.001 512.001" style="enable-background:new 0 0 512.001 512.001;" xml:space="preserve" width="512px" height="512px">
<g>
	<g>
		<path d="M437.022,74.981c-48.116-48.116-112.013-74.71-180.018-74.97C256.666,0.005,256.332,0,256,0    c-0.332,0-0.666,0.004-1.002,0.012c-68.005,0.26-131.901,26.854-180.017,74.97C26.629,123.334,0,187.621,0,256.003    c0,24.981,3.653,49.712,10.727,73.402c5.526-11.922,13.497-22.486,23.269-31.047C31.354,284.459,30,270.277,30,256.003    c0-22.71,3.381-44.643,9.643-65.336h123.941c-1.922,21.052-2.917,42.978-2.917,65.336c0,16.112,0.537,32.063,1.567,47.657    c5.137,5.301,9.66,11.2,13.433,17.595c4.49-7.611,10.034-14.526,16.424-20.556c-0.938-14.604-1.424-29.563-1.424-44.696    c0-22.453,1.038-44.393,3.037-65.336h124.592c1.998,20.943,3.037,42.883,3.037,65.336c0,15.134-0.486,30.093-1.424,44.696    c6.39,6.029,11.934,12.945,16.424,20.556c3.773-6.395,8.296-12.294,13.433-17.595c1.031-15.594,1.567-31.545,1.567-47.657    c0-22.358-0.995-44.284-2.917-65.336h123.942c6.261,20.693,9.642,42.626,9.642,65.336c0,14.275-1.354,28.457-3.996,42.356    c9.771,8.56,17.743,19.124,23.27,31.046c7.073-23.69,10.727-48.422,10.727-73.402C512.001,187.621,485.373,123.333,437.022,74.981    z M184.966,80.844c-7.776,23.33-13.816,50.406-17.931,79.822H51.124c29.073-62.23,85.67-109.126,154.045-124.9    C198.148,47.12,191.299,61.845,184.966,80.844z M197.322,160.667c3.826-25.941,9.245-49.756,16.105-70.335    C228.27,45.802,245.638,30,256,30c10.363,0,27.731,15.801,42.574,60.331c6.859,20.579,12.277,44.393,16.105,70.335H197.322z     M344.966,160.667c-4.114-29.416-10.154-56.492-17.931-79.821c-6.333-18.999-13.182-33.726-20.203-45.079    c68.375,15.775,124.971,62.671,154.044,124.9H344.966z" fill="#ee1b24"/>
	</g>
</g>
<g>
	<g>
		<path d="M461.548,412.913c11.316-11.427,18.319-27.132,18.319-44.446c0-34.848-28.352-63.198-63.2-63.198    s-63.2,28.351-63.2,63.198c0,17.314,7.003,33.02,18.319,44.445c-14.432,7.734-26.654,19.07-35.453,32.805    c-8.799-13.734-21.022-25.07-35.453-32.804c11.316-11.427,18.32-27.132,18.32-44.446c0-34.848-28.352-63.198-63.2-63.198    s-63.2,28.351-63.2,63.198c0,17.314,7.004,33.02,18.32,44.446c-14.432,7.733-26.654,19.069-35.453,32.804    c-8.799-13.734-21.022-25.07-35.453-32.805c11.316-11.426,18.319-27.131,18.319-44.445c0-34.848-28.352-63.198-63.2-63.198    c-34.848,0-63.2,28.351-63.2,63.198c0,17.314,7.003,33.02,18.319,44.446C20.453,428.99,0,460.648,0,497c0,8.283,6.716,15,15,15    h160.667h160.666H497c8.284,0,15-6.717,15-15C512,460.648,491.547,428.99,461.548,412.913z" fill="#ee1b24"/>
	</g>
</g>
<g>
</g>
<g>
</g>
<g>
</g>
<g>
</g>
<g>
</g>
<g>
</g>
<g>
</g>
<g>
</g>
<g>
</g>
<g>
</g>
<g>
</g>
<g>
</g>
<g>
</g>
<g>
</g>
<g>
</g>
</svg>
