<svg width="174" height="71" viewBox="0 0 174 71" version="1.1" xmlns="http://www.w3.org/2000/svg" xmlns:xlink="http://www.w3.org/1999/xlink">
<title>logo-tls-lpq</title>
<desc>Created using Figma</desc>
<g id="Canvas" transform="translate(-3657 79)">
<g id="logo-tls-lpq">
<g id="Group">
<g id="Vector">
<use xlink:href="#path0_fill" transform="translate(3679.1 -54.9263)" fill="#FFFFFF"/>
</g>
<g id="Vector">
<use xlink:href="#path1_fill" transform="translate(3701.14 -54.9844)" fill="#FFFFFF"/>
</g>
<g id="Vector">
<use xlink:href="#path2_fill" transform="translate(3723 -54.9263)" fill="#FFFFFF"/>
</g>
<g id="Vector">
<use xlink:href="#path3_fill" transform="translate(3745.04 -54.9844)" fill="#FFFFFF"/>
</g>
<g id="Vector">
<use xlink:href="#path4_fill" transform="translate(3766.91 -54.8681)" fill="#FFFFFF"/>
</g>
<g id="Vector">
<use xlink:href="#path5_fill" transform="translate(3788.83 -54.8681)" fill="#FFFFFF"/>
</g>
<g id="Vector">
<use xlink:href="#path6_fill" transform="translate(3657.17 -54.9263)" fill="#FFFFFF"/>
</g>
<g id="Vector">
<use xlink:href="#path7_fill" transform="translate(3744.81 -78.9419)" fill="#FFFFFF"/>
</g>
<g id="Vector">
<use xlink:href="#path8_fill" transform="translate(3766.91 -79)" fill="#FFFFFF"/>
</g>
<g id="Vector">
<use xlink:href="#path9_fill" transform="translate(3700.96 -79)" fill="#FFFFFF"/>
</g>
<g id="Vector">
<use xlink:href="#path10_fill" transform="translate(3722.89 -79)" fill="#FFFFFF"/>
</g>
<g id="Vector">
<use xlink:href="#path11_fill" transform="translate(3657 -79)" fill="#FFFFFF"/>
</g>
<g id="Vector">
<use xlink:href="#path12_fill" transform="translate(3678.92 -79)" fill="#FFFFFF"/>
</g>
<g id="Vector">
<use xlink:href="#path13_fill" transform="translate(3810.76 -79)" fill="#FFFFFF"/>
</g>
<g id="Vector">
<use xlink:href="#path14_fill" transform="translate(3788.78 -79)" fill="#FFFFFF"/>
</g>
<g id="Vector">
<use xlink:href="#path15_fill" transform="translate(3755.6 -31.3759)" fill="#FFFFFF"/>
</g>
<g id="Vector">
<use xlink:href="#path16_fill" transform="translate(3766.04 -31.3759)" fill="#FFFFFF"/>
</g>
<g id="Vector">
<use xlink:href="#path17_fill" transform="translate(3769.69 -31.3178)" fill="#FFFFFF"/>
</g>
<g id="Vector">
<use xlink:href="#path18_fill" transform="translate(3780.13 -31.3759)" fill="#FFFFFF"/>
</g>
<g id="Vector">
<use xlink:href="#path19_fill" transform="translate(3756.24 -18.6994)" fill="#FFFFFF"/>
</g>
<g id="Vector">
<use xlink:href="#path20_fill" transform="translate(3767.55 -18.6412)" fill="#FFFFFF"/>
</g>
<g id="Vector">
<use xlink:href="#path21_fill" transform="translate(3778.22 -18.6412)" fill="#FFFFFF"/>
</g>
<g id="Vector">
<use xlink:href="#path22_fill" transform="translate(3787.38 -18.6412)" fill="#FFFFFF"/>
</g>
<g id="Vector">
<use xlink:href="#path23_fill" transform="translate(3798.75 -18.6412)" fill="#FFFFFF"/>
</g>
<g id="Vector">
<use xlink:href="#path24_fill" transform="translate(3809.66 -18.6412)" fill="#FFFFFF"/>
</g>
<g id="Vector">
<use xlink:href="#path25_fill" transform="translate(3820.56 -18.8738)" fill="#FFFFFF"/>
</g>
</g>
</g>
</g>
<defs>
<path id="path0_fill" d="M 8.58401 14.3047L 10.208 8.31532L 11.716 14.3047L 8.58401 14.3047ZM 7.19201 8.87285e-07L -8.8501e-07 22.3292L 6.67 22.3292L 7.54 19.1892L 12.818 19.1892L 13.688 22.3292L 20.242 22.3292L 13.108 8.87285e-07L 7.19201 8.87285e-07Z"/>
<path id="path1_fill" d="M 13.398 11.6298C 13.398 13.8395 13.34 16.8632 10.092 16.8632C 6.786 16.8632 6.612 13.9558 6.612 11.6298L 6.612 -4.43642e-07L -8.8501e-07 -4.43642e-07L -8.8501e-07 13.1998C -8.8501e-07 19.3636 3.364 22.3292 10.15 22.3292C 16.878 22.3292 20.3 19.4218 20.3 13.1998L 20.3 0.05815L 13.456 0.05815L 13.398 11.6298Z"/>
<path id="path2_fill" d="M 1.77002e-06 5.69861L 6.72801 5.69861L 6.72801 22.2711L 13.572 22.2711L 13.572 5.69861L 20.242 5.69861L 20.242 8.87285e-07L 1.77002e-06 8.87285e-07L 1.77002e-06 5.69861Z"/>
<path id="path3_fill" d="M 10.034 9.8272L 6.55401 9.8272L 6.55401 5.34972L 9.628 5.34972C 12.18 5.34972 12.934 6.22195 12.934 7.55938C 12.934 9.5946 11.252 9.8272 10.034 9.8272ZM 16.298 12.0369C 18.502 11.1646 19.546 8.72236 19.546 6.3964C 19.546 2.15152 16.298 -4.43642e-07 12.586 -4.43642e-07L 1.77002e-06 -4.43642e-07L 1.77002e-06 22.3874L 6.612 22.3874L 6.612 14.5954L 10.15 14.5954C 12.76 14.5954 12.934 16.8632 13.166 18.9566C 13.224 20.1196 13.398 21.2826 13.688 22.4455L 20.3 22.4455C 19.662 21.457 19.662 18.724 19.604 17.6773C 19.198 14.7699 18.154 12.7346 16.298 12.0369Z"/>
<path id="path4_fill" d="M 6.84401 13.7813L 17.922 13.7813L 17.922 8.43162L 6.84401 8.43162L 6.84401 5.69861L 20.3 5.69861L 20.3 0L 0 0L 0 22.3874L 20.3 22.3874L 20.3 16.6306L 6.84401 16.6306L 6.84401 13.7813Z"/>
<path id="path5_fill" d="M 10.556 16.9214C 7.48201 16.9214 6.55401 13.9558 6.55401 11.1065C 6.55401 8.25717 7.54001 5.29156 10.556 5.29156C 13.224 5.29156 13.862 7.67568 13.92 8.43162L 20.184 8.43162C 19.662 3.02375 16.414 4.13174e-15 10.672 4.13174e-15C 4.234 4.13174e-15 1.77002e-06 4.47748 1.77002e-06 11.1646C 1.77002e-06 17.4447 3.828 22.3292 10.672 22.3292C 16.82 22.3292 20.242 17.7936 20.242 13.4906L 13.862 13.4906C 13.572 15.3514 12.702 16.9214 10.556 16.9214Z"/>
<path id="path6_fill" d="M 6.78601 8.87285e-07L 6.91414e-09 8.87285e-07L 6.91414e-09 22.3292L 20.242 22.3292L 20.242 16.5725L 6.78601 16.5725L 6.78601 8.87285e-07Z"/>
<path id="path7_fill" d="M 10.15 6.57085C 12.122 6.57085 13.746 8.66421 13.746 11.1065C 13.746 13.665 12.122 15.6421 10.15 15.6421C 8.178 15.6421 6.554 13.5487 6.554 11.1065C 6.554 8.60606 8.178 6.57085 10.15 6.57085ZM 10.15 22.3292C 15.776 22.3292 20.3 17.3284 20.3 11.1646C 20.3 5.00082 15.776 8.66488e-10 10.15 8.66488e-10C 4.582 8.66488e-10 -3.54004e-06 5.00082 -3.54004e-06 11.1646C 0.0579965 17.3284 4.582 22.3292 10.15 22.3292Z"/>
<path id="path8_fill" d="M 10.0369 22.3874C 16.7649 22.3874 20.1869 19.4799 20.1869 13.3161L 20.1869 0L 13.4589 0L 13.4589 11.6298C 13.4589 13.9558 13.4009 16.8632 10.0949 16.8632C 6.7889 16.8632 6.67291 13.9558 6.67291 11.6298L 6.67291 0L 0.00290027 0L 0.00290027 13.1998C -0.1131 19.3636 3.25091 22.3874 10.0369 22.3874Z"/>
<path id="path9_fill" d="M 10.1507 22.3874C 16.9948 22.3874 20.3008 19.4799 20.3008 13.3161L 20.3008 0L 13.5147 0L 13.5147 11.6298C 13.5147 13.9558 13.4567 16.8632 10.2087 16.8632C 6.90274 16.8632 6.72874 13.9558 6.72874 11.6298L 6.67074 0L 0.000739023 0L 0.000739023 13.1998C -0.057261 19.3636 3.30674 22.3874 10.1507 22.3874Z"/>
<path id="path10_fill" d="M 20.242 16.6888L 6.84401 16.6888L 6.84401 0L -8.8501e-07 0L -8.8501e-07 22.3874L 20.242 22.3874L 20.242 16.6888Z"/>
<path id="path11_fill" d="M 6.72801 22.3874L 13.572 22.3874L 13.572 5.69861L 20.242 5.69861L 20.242 0L 0 0L 0 5.69861L 6.72801 5.69861L 6.72801 22.3874Z"/>
<path id="path12_fill" d="M 10.15 6.62899C 12.122 6.62899 13.746 8.72236 13.746 11.1646C 13.746 13.7232 12.122 15.7003 10.15 15.7003C 8.17801 15.7003 6.554 13.6069 6.554 11.1646C 6.554 8.66421 8.17801 6.62899 10.15 6.62899ZM 10.15 22.3874C 15.718 22.3874 20.3 17.3866 20.3 11.2228C 20.3 5.00082 15.718 0 10.15 0C 4.524 0 -4.42505e-07 5.00082 -4.42505e-07 11.1646C -4.42505e-07 17.3866 4.524 22.3874 10.15 22.3874Z"/>
<path id="path13_fill" d="M 6.844 16.6306L 6.844 13.8395L 17.806 13.8395L 17.806 8.54791L 6.844 8.54791L 6.844 5.69861L 20.242 5.69861L 20.242 0L 3.54004e-06 0L 3.54004e-06 22.3874L 20.242 22.3874L 20.242 16.6888L 6.844 16.6888L 6.844 16.6306Z"/>
<path id="path14_fill" d="M 13.92 8.83866C 10.788 7.96642 7.54001 7.67568 7.42401 6.1638C 7.42401 4.94267 8.932 4.71008 9.86 4.71008C 10.556 4.71008 11.31 4.88452 11.948 5.23342C 12.47 5.64046 12.876 6.1638 12.76 6.91974L 19.314 6.91974C 19.14 1.74447 14.732 0 9.91801 0C 5.33601 0 0.869999 2.15152 0.869999 7.09419C 0.869999 11.3972 4.93001 12.3276 8.46801 13.258C 12.296 14.3047 13.282 14.6536 13.282 15.7003C 13.282 17.3284 11.542 17.6192 10.44 17.6192C 9.164 17.6192 7.59801 17.3284 7.13401 16.1073C 6.96001 15.7003 6.90201 15.2351 6.90201 14.7117L -1.77002e-06 14.7117C 0.0579983 21.5733 7.36601 22.3874 9.91801 22.3874C 14.906 22.3874 20.3 20.6429 20.3 15.0025C 20.184 11.0483 17.052 9.7109 13.92 8.83866Z"/>
<path id="path15_fill" d="M 6.55401 10.3505L 3.016 10.3505L 0 8.87285e-07L 3.24801 8.87285e-07L 4.93 6.22195L 6.612 8.87285e-07L 9.86001 8.87285e-07L 6.55401 10.3505Z"/>
<path id="path16_fill" d="M 0 8.87285e-07L 3.132 8.87285e-07L 3.132 10.2924L 0 10.2924L 0 8.87285e-07Z"/>
<path id="path17_fill" d="M 6.612 10.2924L 3.07401 10.2924L 1.77002e-06 0L 3.19 0L 4.872 6.22195L 6.55401 0L 9.74401 0L 6.612 10.2924Z"/>
<path id="path18_fill" d="M 1.77002e-06 8.87285e-07L 8.52601 8.87285e-07L 8.52601 2.61671L 3.132 2.61671L 3.132 3.89599L 7.94601 3.89599L 7.94601 6.33825L 3.132 6.33825L 3.132 7.61753L 8.642 7.61753L 8.642 10.2342L 1.77002e-06 10.2342L 1.77002e-06 8.87285e-07Z"/>
<path id="path19_fill" d="M 6.844 3.89599C 6.786 3.48895 6.55401 2.38411 5.162 2.38411C 3.712 2.38411 3.248 3.83784 3.248 5.23342C 3.248 6.62899 3.712 8.08272 5.162 8.08272C 6.26401 8.08272 6.612 7.32678 6.844 6.3964L 9.91801 6.3964C 9.91801 8.48976 8.23601 10.6994 5.22001 10.6994C 1.91401 10.6994 3.54004e-06 8.31532 3.54004e-06 5.34972C 3.54004e-06 2.09337 2.08801 -1.77457e-06 5.22001 -1.77457e-06C 8.06201 -1.77457e-06 9.57001 1.45373 9.91801 4.07043L 6.844 4.07043L 6.844 3.89599Z"/>
<path id="path20_fill" d="M 3.54004e-06 1.77457e-06L 6.09001 1.77457e-06C 7.88801 1.77457e-06 9.454 0.988536 9.454 2.90746C 9.454 4.01229 8.99001 5.05897 7.94601 5.52416C 8.81601 5.81491 9.338 6.80344 9.454 8.08272C 9.512 8.60606 9.51201 9.76904 9.86001 10.2924L 6.728 10.2924C 6.554 9.76904 6.49601 9.18755 6.49601 8.66421C 6.43801 7.67568 6.32201 6.68715 5.04601 6.68715L 3.364 6.68715L 3.364 10.2924L 0.232 10.2924L 0.232 1.77457e-06C 0.174 1.77457e-06 3.54004e-06 1.77457e-06 3.54004e-06 1.77457e-06ZM 3.248 4.53563L 4.93001 4.53563C 5.56801 4.53563 6.322 4.47748 6.322 3.54709C 6.322 2.90745 5.91601 2.55856 4.75601 2.55856L 3.306 2.55856L 3.306 4.53563L 3.248 4.53563Z"/>
<path id="path21_fill" d="M 0 1.77457e-06L 8.526 1.77457e-06L 8.526 2.67486L 3.132 2.67486L 3.132 3.95414L 7.946 3.95414L 7.946 6.3964L 3.132 6.3964L 3.132 7.67568L 8.642 7.67568L 8.642 10.2924L 0 10.2924L 0 1.77457e-06Z"/>
<path id="path22_fill" d="M 3.77 1.77457e-06L 6.84401 1.77457e-06L 10.614 10.2924L 7.308 10.2924L 6.902 8.83866L 3.596 8.83866L 3.132 10.2924L 1.77002e-06 10.2924L 3.77 1.77457e-06ZM 6.322 6.57084L 5.39401 3.43079L 4.408 6.57084L 6.322 6.57084Z"/>
<path id="path23_fill" d="M -3.54004e-06 1.77457e-06L 3.19 1.77457e-06L 6.20601 5.52416L 6.20601 1.77457e-06L 9.222 1.77457e-06L 9.222 10.2924L 6.14801 10.2924L 3.01601 4.65193L 3.01601 10.2924L -3.54004e-06 10.2924L -3.54004e-06 1.77457e-06Z"/>
<path id="path24_fill" d="M 7.08008e-06 1.77457e-06L 5.22001 1.77457e-06C 8.70001 1.77457e-06 9.80201 2.55856 9.80201 5.17527C 9.80201 8.31532 8.12001 10.3505 4.58201 10.3505L 7.08008e-06 10.3505L 7.08008e-06 1.77457e-06ZM 3.19001 7.67568L 4.408 7.67568C 6.38 7.67568 6.61201 6.0475 6.61201 5.11712C 6.61201 4.47748 6.38 2.67486 4.176 2.67486L 3.19001 2.67486L 3.19001 7.67568Z"/>
<path id="path25_fill" d="M 5.22 8.87285e-07C 8.35201 8.87285e-07 10.44 2.20966 10.44 5.34971C 10.44 8.48977 8.35201 10.6994 5.22 10.6994C 2.088 10.6994 0 8.48977 0 5.34971C 0 2.20966 2.088 8.87285e-07 5.22 8.87285e-07ZM 5.22 8.19902C 6.032 8.19902 7.30801 7.67568 7.30801 5.34971C 7.30801 3.02375 6.09 2.50041 5.22 2.50041C 4.466 2.50041 3.132 3.02375 3.132 5.34971C 3.132 7.67568 4.408 8.19902 5.22 8.19902Z"/>
</defs>
</svg>
